<svg width="150" height="103" viewBox="0 0 150 103" fill="none" xmlns="http://www.w3.org/2000/svg">
<g clip-path="url(#clip0_131_552)">
<path d="M150 9.6094L127.176 0L124.136 1.51482L124.5 30.4595L95.8287 37.218V24.4003L71.0556 19.7393L68.7662 20.8346V44.4503L11.5397 80.3165L0.247577 80.2699L0.0078125 103H11.5397L67.6524 83.354L67.7994 103H73.4919V82.5383H94.6067V103H100.028V82.5383H125.227L125.165 103H130.486V82.5383H145.274V103H150V78.8483H149.961L150 9.6094ZM26.1963 81.1788L26.1809 75.2904C26.1809 75.1428 26.2659 75.003 26.3897 74.9409L40.0176 67.025C40.2806 66.8851 40.5977 67.0793 40.5977 67.3745V75.1895C40.5977 75.3448 40.5049 75.4847 40.3657 75.5468L26.7532 81.5362C26.4902 81.6605 26.1886 81.4663 26.1886 81.1788H26.1963ZM40.8993 87.7586C40.8993 87.9217 40.7988 88.0693 40.6441 88.1315L27.0162 93.3052C26.7609 93.4061 26.4825 93.2119 26.4825 92.9323L26.5985 86.8419C26.5985 86.6788 26.6913 86.539 26.8383 86.4768L40.4662 80.6661C40.7292 80.5574 41.0153 80.7438 41.0153 81.0312L40.8993 87.7586ZM47.9995 71.5461V63.8633C47.9995 63.7001 48.0768 63.5603 48.2006 63.4826L63.8471 54.5646C64.0946 54.417 64.3963 54.6267 64.3963 54.9452L64.288 64.1895C64.288 64.3527 64.2029 64.508 64.0714 64.5779L48.5331 71.9423C48.2856 72.0744 47.9995 71.8646 47.9995 71.5539V71.5461ZM64.5046 79.1591L49.206 85.1484C48.974 85.265 48.7342 85.0397 48.7342 84.7212L48.6259 76.5878C48.6259 76.4013 48.711 76.2382 48.8348 76.1683L64.0173 69.6196C64.2493 69.4875 64.5046 69.7128 64.5046 70.0391L64.7289 78.7396C64.7289 78.9338 64.636 79.1047 64.5046 79.1668V79.1591ZM73.6543 24.9829L92.0698 28.7971L92.0311 38.1113L73.6543 42.2208V24.9751V24.9829ZM73.6543 49.5773C73.6543 49.3754 73.7935 49.2045 73.9714 49.1889L92.8355 47.2546C93.0443 47.2313 93.2222 47.4178 93.2222 47.643V58.7129C93.2222 58.9226 93.0752 59.0935 92.8896 59.1013L74.0255 60.5384C73.8245 60.554 73.6466 60.3753 73.6466 60.15V49.5773H73.6543ZM92.9747 76.6033H73.9095C73.6775 76.6033 73.4919 76.4013 73.4919 76.1605V66.3724C73.4919 66.1316 73.6698 65.9374 73.8863 65.9296L92.8432 64.7799C93.083 64.7722 93.2763 64.9741 93.2763 65.2227L93.3846 76.1683C93.3846 76.4169 93.199 76.6111 92.967 76.6111L92.9747 76.6033ZM121.398 76.2537C121.398 76.3702 121.282 76.4635 121.135 76.4635H100.477C100.33 76.4635 100.214 76.3702 100.214 76.2537V65.246C100.214 65.1295 100.33 65.0363 100.469 65.0363L121.128 64.8576C121.275 64.8576 121.391 64.9508 121.391 65.0674V76.2537H121.398ZM121.398 58.2002C121.398 58.5031 121.135 58.7439 120.811 58.7517L100.833 59.1867C100.5 59.1867 100.222 58.9459 100.222 58.6352V46.4234C100.222 46.1515 100.438 45.9185 100.732 45.8796L120.71 43.3161C121.074 43.2695 121.398 43.5258 121.398 43.8599V58.2002ZM145.228 78.087H130.409L129.984 8.5296L145.228 14.5345V78.087Z" fill="white"/>
</g>
<defs>
<clipPath id="clip0_131_552">
<rect width="150" height="103" fill="white"/>
</clipPath>
</defs>
</svg>
