<svg width="119" height="119" viewBox="0 0 119 119" fill="none" xmlns="http://www.w3.org/2000/svg">
<g clip-path="url(#clip0_56_3152)">
<path d="M119 69.4137C119 65.4686 117.433 61.685 114.643 58.8954C111.854 56.1058 108.07 54.5387 104.125 54.5387H94.2083V19.8303C94.2083 15.8852 92.6412 12.1017 89.8516 9.31211C87.062 6.52251 83.2784 4.95532 79.3333 4.95532H14.875C10.9299 4.95532 7.14639 6.52251 4.35679 9.31211C1.56718 12.1017 0 15.8852 0 19.8303L0 94.2053H10.12C9.99238 95.0257 9.92444 95.8543 9.91667 96.6845C9.91667 101.287 11.745 105.701 14.9996 108.956C18.2541 112.21 22.6682 114.039 27.2708 114.039C31.8734 114.039 36.2875 112.21 39.5421 108.956C42.7966 105.701 44.625 101.287 44.625 96.6845C44.6172 95.8543 44.5493 95.0257 44.4217 94.2053H74.5783C74.4507 95.0257 74.3828 95.8543 74.375 96.6845C74.375 101.287 76.2034 105.701 79.4579 108.956C82.7125 112.21 87.1266 114.039 91.7292 114.039C96.3318 114.039 100.746 112.21 104 108.956C107.255 105.701 109.083 101.287 109.083 96.6845C109.076 95.8543 109.008 95.0257 108.88 94.2053H119V69.4137ZM64.4583 64.4553V84.2887H49.5833V34.7053H64.4583V64.4553ZM9.91667 54.5387V34.7053H19.8333V54.5387H9.91667ZM29.75 34.7053H39.6667V54.5387H29.75V34.7053ZM74.375 34.7053H84.2917V54.5387H74.375V34.7053ZM14.875 14.872H79.3333C80.6484 14.872 81.9095 15.3944 82.8394 16.3243C83.7693 17.2541 84.2917 18.5153 84.2917 19.8303V24.7887H9.91667V19.8303C9.91667 18.5153 10.4391 17.2541 11.3689 16.3243C12.2988 15.3944 13.56 14.872 14.875 14.872ZM9.91667 64.4553H39.6667V84.2887H9.91667V64.4553ZM34.7083 96.6845C34.7083 98.657 33.9247 100.549 32.5299 101.944C31.1351 103.338 29.2434 104.122 27.2708 104.122C25.2983 104.122 23.4065 103.338 22.0117 101.944C20.6169 100.549 19.8333 98.657 19.8333 96.6845C19.8355 95.837 19.9918 94.9969 20.2945 94.2053H34.2472C34.5499 94.9969 34.7062 95.837 34.7083 96.6845ZM99.1667 96.6845C99.1667 98.657 98.3831 100.549 96.9883 101.944C95.5935 103.338 93.7017 104.122 91.7292 104.122C89.7566 104.122 87.8649 103.338 86.4701 101.944C85.0753 100.549 84.2917 98.657 84.2917 96.6845C84.2938 95.837 84.4501 94.9969 84.7528 94.2053H98.7055C99.0082 94.9969 99.1645 95.837 99.1667 96.6845ZM109.083 84.2887H74.375V64.4553H104.125C105.44 64.4553 106.701 64.9777 107.631 65.9076C108.561 66.8375 109.083 68.0986 109.083 69.4137V84.2887Z" fill="white"/>
</g>
<defs>
<clipPath id="clip0_56_3152">
<rect width="119" height="119" fill="white"/>
</clipPath>
</defs>
</svg>
