<svg width="100%" height="100%" viewBox="0 0 102 102" fill="none" xmlns="http://www.w3.org/2000/svg">
<g clip-path="url(#clip0_56_3144)">
<path d="M21.2506 80.749H40.0101L97.9929 22.7663C100.477 20.2765 101.871 16.9033 101.871 13.3865C101.871 9.86974 100.477 6.49654 97.9929 4.00676C95.467 1.59231 92.1073 0.244873 88.6131 0.244873C85.1189 0.244873 81.7592 1.59231 79.2334 4.00676L21.2506 61.9895V80.749ZM29.7506 65.5085L85.2429 10.0163C86.1506 9.14907 87.3577 8.66516 88.6131 8.66516C89.8685 8.66516 91.0756 9.14907 91.9834 10.0163C92.8756 10.911 93.3767 12.1229 93.3767 13.3865C93.3767 14.6501 92.8756 15.8621 91.9834 16.7568L36.4911 72.249H29.7506V65.5085Z" fill="white"/>
<path d="M100.389 32.3935L93.5 39.2827V68H68V93.5H8.5V12.75C8.5 11.6228 8.94777 10.5418 9.7448 9.7448C10.5418 8.94777 11.6228 8.5 12.75 8.5H62.7215L69.6107 1.61075C70.2313 1.0354 70.8855 0.497531 71.57 0L12.75 0C9.36849 0 6.12548 1.3433 3.73439 3.73439C1.3433 6.12548 0 9.36849 0 12.75L0 102H78.2595L102 78.2595V30.4342C101.501 31.1179 100.964 31.7721 100.389 32.3935ZM76.5 91.7405V76.5H91.7405L76.5 91.7405Z" fill="white"/>
</g>
<defs>
<clipPath id="clip0_56_3144">
<rect width="100%" height="100%" fill="white"/>
</clipPath>
</defs>
</svg>
