<svg width="100%" height="100%" viewBox="0 0 101 101" fill="none" xmlns="http://www.w3.org/2000/svg">
<g clip-path="url(#clip0_55_3129)">
<path d="M50.4999 50.5001C53.8292 50.5001 57.0838 49.5129 59.852 47.6632C62.6202 45.8135 64.7778 43.1845 66.0519 40.1087C67.3259 37.0328 67.6593 33.6481 67.0098 30.3828C66.3603 27.1174 64.757 24.118 62.4029 21.7638C60.0487 19.4097 57.0493 17.8064 53.7839 17.1569C50.5186 16.5074 47.1339 16.8408 44.058 18.1148C40.9822 19.3889 38.3531 21.5465 36.5035 24.3147C34.6538 27.0829 33.6665 30.3375 33.6665 33.6668C33.6665 38.1313 35.4401 42.4129 38.5969 45.5698C41.7538 48.7266 46.0354 50.5001 50.4999 50.5001ZM50.4999 25.2501C52.1645 25.2501 53.7918 25.7438 55.1759 26.6686C56.56 27.5934 57.6388 28.9079 58.2759 30.4459C58.9129 31.9838 59.0796 33.6762 58.7548 35.3088C58.4301 36.9415 57.6285 38.4412 56.4514 39.6183C55.2743 40.7954 53.7746 41.597 52.1419 41.9218C50.5092 42.2465 48.8169 42.0798 47.279 41.4428C45.741 40.8058 44.4265 39.727 43.5017 38.3429C42.5768 36.9587 42.0832 35.3315 42.0832 33.6668C42.0832 31.4346 42.97 29.2938 44.5484 27.7153C46.1268 26.1369 48.2676 25.2501 50.4999 25.2501ZM67.3332 92.7097L101 100.908V56.7411C100.999 54.0304 100.126 51.392 98.5091 49.2161C96.8925 47.0402 94.6185 45.4424 92.0235 44.659L83.186 41.7131C83.8322 39.0882 84.1614 36.3953 84.1666 33.6921C84.1666 24.7631 80.6195 16.1999 74.3058 9.88613C67.9921 3.5724 59.4288 0.0253906 50.4999 0.0253906C41.5709 0.0253906 33.0077 3.5724 26.694 9.88613C20.3802 16.1999 16.8332 24.7631 16.8332 33.6921C16.8457 35.4004 16.9863 37.1053 17.2541 38.7926C15.3429 38.0307 13.2742 37.7487 11.2289 37.9713C9.18352 38.1939 7.22389 38.9143 5.52141 40.0695C3.81892 41.2247 2.42545 42.7795 1.46289 44.5979C0.500329 46.4162 -0.00198725 48.4427 -0.000116866 50.5001V91.5398L33.595 101.139L67.3332 92.7097ZM32.6439 15.8403C37.3877 11.1638 43.7873 8.55135 50.4486 8.57201C57.1099 8.59267 63.4932 11.2448 68.2079 15.9506C72.9227 20.6565 75.5868 27.0347 75.62 33.696C75.6532 40.3572 73.0528 46.7617 68.3853 51.5144L50.4999 69.0168L32.6439 51.548C27.909 46.8128 25.249 40.3906 25.249 33.6942C25.249 26.9977 27.909 20.5756 32.6439 15.8403ZM8.41655 50.5001C8.41124 49.8061 8.5803 49.1217 8.90824 48.51C9.23618 47.8982 9.71249 47.3786 10.2935 46.9988C10.9012 46.6 11.6013 46.3641 12.3265 46.314C13.0517 46.2639 13.7776 46.4012 14.4345 46.7127L20.4692 48.8926C22.0838 52.0899 24.196 55.0104 26.727 57.5449L50.4999 80.8002L74.3064 57.5154C76.6473 55.1779 78.6324 52.5095 80.1981 49.5954L89.528 52.7137C90.4067 52.9651 91.1797 53.4957 91.7302 54.2253C92.2807 54.9549 92.5786 55.844 92.579 56.7579V90.21L67.3332 84.0406L33.7507 92.4572L8.41655 85.2021V50.5001Z" fill="white"/>
</g>
<defs>
<clipPath id="clip0_55_3129">
<rect width="100%" height="100%" fill="white"/>
</clipPath>
</defs>
</svg>
