<svg width="100%" height="100%" viewBox="0 0 83 108" fill="none" xmlns="http://www.w3.org/2000/svg">
<g clip-path="url(#clip0_31_2010)">
<path d="M2.40545 108C0.381678 106.98 -0.0702436 105.287 0.00834958 103.129C0.216635 96.631 1.58667 90.2238 4.0531 84.2126C5.49585 80.6993 7.95749 78.3186 11.4858 76.9549C16.2098 75.1264 20.9562 73.343 25.582 71.2835C27.1455 70.5876 28.3889 69.1394 29.7222 67.9702C29.9327 67.7814 29.8373 67.2461 29.8934 66.8742C30.2611 64.5189 29.4724 62.8538 27.5918 61.2168C23.5246 57.6754 21.3941 52.9111 20.2658 47.6707C20.1815 47.2876 19.7914 46.7184 19.4826 46.6762C15.6119 46.1465 11.8535 41.7654 13.7004 36.4095C11.5784 34.9783 10.8711 32.9103 11.6486 30.4929C12.5384 27.7122 14.8288 27.112 17.5431 27.2839C17.5431 26.1288 17.5206 25.0835 17.5431 24.0382C17.7788 14.2364 22.3597 7.28589 31.1734 3.0964C31.6666 2.85187 32.1117 2.51966 32.487 2.11591C33.7894 0.755094 35.322 -0.00842536 37.2278 0.00284431C40.0665 0.0178705 42.9034 0.0178705 45.7384 0.00284431C46.6148 -0.00708744 47.4837 0.166699 48.2894 0.513088C49.0951 0.859478 49.8199 1.37085 50.4175 2.01448C50.7556 2.35735 51.1582 2.62936 51.602 2.81465C55.8284 4.49054 59.4521 7.40855 61.9984 11.1865C64.5447 14.9645 65.8949 19.4263 65.8722 23.9875V27.205C66.4869 27.2557 67.0371 27.267 67.576 27.3487C69.524 27.6502 70.8882 28.7349 71.4074 30.6338C71.9267 32.5328 71.6881 34.2964 70.1556 35.6629C69.6223 36.1419 69.5773 36.5081 69.7626 37.1702C70.0522 38.185 70.1248 39.2497 69.9758 40.2946C69.8268 41.3396 69.4595 42.3411 68.8979 43.2336C68.3363 44.126 67.5932 44.8893 66.7172 45.4734C65.8412 46.0574 64.8521 46.4491 63.8148 46.6227C63.1383 46.7353 62.8324 46.9748 62.692 47.7074C61.4626 53.7958 58.5855 58.9178 53.7268 62.865C53.4013 63.1904 53.1912 63.6141 53.1289 64.0709C52.7107 66.446 53.4096 68.2519 55.4895 69.7057C56.9154 70.7172 58.2487 71.7653 59.9188 72.3907C63.8485 73.8586 67.7136 75.4645 71.618 76.9803C75.1462 78.3496 77.5658 80.7895 78.9945 84.3056C81.5598 90.5843 82.9216 97.2925 83.0084 104.078C83.0364 105.983 82.1214 107.138 80.6 108H2.40545ZM22.9211 36.9448C22.8734 37.6463 22.7863 38.2352 22.8004 38.824C22.8397 40.5427 22.8453 42.2697 23.0053 43.9799C23.4881 49.1724 25.1385 53.9254 28.6921 57.8359C32.2456 61.7465 36.5738 64.316 42.1062 64.1273C46.5411 63.9723 50.1536 61.9607 53.2608 58.9404C58.1926 54.1508 59.9469 48.068 60.1995 41.4076C60.2556 39.9482 60.1995 38.4831 60.1995 36.9448H44.9468C43.229 36.9448 41.514 36.9645 39.799 36.9195C39.5965 36.9227 39.3955 36.8836 39.2088 36.8048C39.0221 36.726 38.8538 36.6092 38.7145 36.4616C38.5751 36.3141 38.4679 36.1391 38.3994 35.9478C38.331 35.7564 38.3029 35.553 38.3169 35.3502C38.3056 34.9421 38.4557 34.5461 38.7345 34.2488C39.0133 33.9515 39.398 33.7772 39.8046 33.764C40.1161 33.7386 40.4333 33.764 40.7477 33.764H65.2295C65.7544 33.764 66.2821 33.7809 66.8041 33.764C67.8904 33.7189 68.4686 33.068 68.3984 31.9918C68.3283 30.9155 67.809 30.5606 66.3915 30.5606H16.5971C16.3529 30.5606 16.1059 30.5605 15.8645 30.5803C15.5451 30.5926 15.241 30.7212 15.0091 30.9421C14.7772 31.1629 14.6333 31.4609 14.6042 31.7805C14.3825 32.9976 15.0618 33.7527 16.3866 33.7527C21.8488 33.7527 27.312 33.7527 32.7761 33.7527C33.0912 33.7358 33.4069 33.7358 33.722 33.7527C34.1283 33.7845 34.5062 33.9742 34.7752 34.2816C35.0442 34.5889 35.1829 34.9895 35.1619 35.398C35.0777 36.263 34.6006 36.8265 33.6968 36.9054C33.315 36.9392 32.9277 36.9279 32.5431 36.9279L22.9211 36.9448ZM39.9421 86.6891C39.6277 86.9061 39.3976 87.0441 39.1927 87.2103C37.6957 88.4293 36.2052 89.6502 34.7213 90.873C33.0624 92.2422 32.2203 92.045 31.2941 90.0587C29.9336 87.138 28.5732 84.2173 27.2128 81.2966C26.2837 79.3047 25.3462 77.3156 24.4059 75.2983C20.1394 76.9887 15.9515 78.6538 11.7749 80.3499C10.0907 81.0064 8.69654 82.2468 7.84522 83.8464C5.81864 87.6893 4.73798 91.8421 3.94082 96.2148H15.6849C17.5122 96.2148 17.5122 96.2148 17.9079 94.5243C17.9079 94.4567 17.936 94.3863 17.9529 94.3187C18.2027 93.4284 18.9156 92.91 19.7352 93.0508C20.1368 93.116 20.4996 93.3297 20.7521 93.6498C21.0045 93.97 21.1284 94.3734 21.0994 94.7807C21.0826 95.2259 20.9955 95.6682 20.9254 96.2232H22.1239C24.5042 96.2232 26.8956 96.2063 29.2675 96.2232C30.3453 96.2232 31.0078 96.8403 31.0555 97.7531C31.106 98.7364 30.4744 99.4436 29.3517 99.4774C27.8837 99.5337 26.41 99.4971 24.9392 99.4999H20.552C20.4734 101.311 20.4005 103.008 20.3247 104.74H39.9168V99.4999C39.3751 99.4999 38.9204 99.4999 38.4685 99.4999C37.5254 99.4999 36.5766 99.5224 35.6391 99.4351C35.2637 99.4162 34.9092 99.2561 34.646 98.9867C34.3829 98.7174 34.2304 98.3584 34.2188 97.9813C34.1714 97.6081 34.2658 97.2306 34.4832 96.924C34.7006 96.6175 35.0252 96.4045 35.3921 96.3275C35.76 96.242 36.1376 96.206 36.5149 96.2204C37.6545 96.2204 38.7913 96.2204 39.9337 96.2204L39.9421 86.6891ZM58.9869 75.442C58.7848 75.8561 58.6304 76.1632 58.4845 76.476C56.3662 81.012 54.2479 85.5499 52.1297 90.0897C51.2118 92.0619 50.3641 92.2422 48.6912 90.8617C46.9201 89.3995 45.1433 87.9485 43.2683 86.413V96.1275H62.0492C62.0653 96.0629 62.0747 95.9968 62.0773 95.9303C61.7966 94.0792 62.1531 93.2311 63.273 93.048C64.393 92.8649 65.0667 93.6397 65.2379 95.4513C65.2996 96.1359 65.6056 96.2317 66.1754 96.2289C69.3977 96.212 72.6313 96.2289 75.8395 96.2289H79.0843C78.2731 91.7943 77.184 87.5738 75.0845 83.6914C74.239 82.1678 72.8867 80.991 71.2643 80.3668C67.2083 78.7102 63.1495 77.1099 58.9785 75.442H58.9869ZM48.9495 27.2135H62.5489C64.059 19.4825 58.0382 7.77329 52.0904 6.81255C51.0378 13.5884 49.9964 20.3615 48.941 27.2135H48.9495ZM34.0729 27.2304C33.0203 20.4009 31.9846 13.6729 30.946 6.94496C24.6108 9.08338 19.1711 20.0713 20.8889 27.2304H34.0729ZM32.8771 65.2655C33.1242 66.5756 33.0652 67.7589 33.5564 68.6464C36.0124 73.0105 38.6088 77.293 41.1631 81.6065C41.3147 81.8657 41.4971 82.1052 41.7245 82.4517C41.9743 82.077 42.1708 81.8009 42.342 81.5107C44.5202 77.834 46.6029 74.0953 48.9073 70.5031C49.9487 68.8859 50.0048 67.2743 49.8645 65.4317C44.2928 67.9956 38.7604 68.0237 32.8631 65.2626L32.8771 65.2655ZM43.2346 104.757H62.706C62.6246 102.985 62.5461 101.286 62.4675 99.576H43.2346V104.757ZM41.4045 10.3146C43.3974 10.3146 45.3931 10.2893 47.386 10.3146C48.0737 10.3287 48.4077 10.1427 48.4638 9.4102C48.5256 8.61005 48.6996 7.81837 48.8287 7.02386C49.1684 4.91361 47.8491 3.22598 45.7131 3.18372C42.9062 3.12925 40.1077 3.12925 37.3177 3.18372C35.1788 3.22316 33.8568 4.90797 34.1936 7.01822C34.3227 7.81273 34.4967 8.60441 34.5585 9.40456C34.6174 10.1315 34.9374 10.3287 35.6307 10.3146C37.5394 10.2864 39.4649 10.3118 41.3905 10.3118L41.4045 10.3146ZM38.5976 83.5477L31.207 71.0666C30.1488 72.0104 29.2226 72.9204 28.2037 73.7149C27.5917 74.191 27.6226 74.5883 27.923 75.2166C29.725 79.0088 31.4905 82.8236 33.2561 86.6215C33.3824 86.9032 33.5368 87.1568 33.7248 87.5315L38.5976 83.5477ZM49.7747 87.554C51.8153 83.1842 53.8026 78.9497 55.7562 74.701C55.7799 74.5755 55.7734 74.4461 55.7373 74.3236C55.7011 74.2011 55.6364 74.089 55.5485 73.9966C54.5043 73.0246 53.4208 72.0892 52.2672 71.0693L44.885 83.542L49.7747 87.554ZM17.3353 99.5816H3.40471V104.749H17.0939C17.1473 102.999 17.2259 101.328 17.3073 99.5788L17.3353 99.5816ZM79.8562 104.768C79.7552 102.937 79.6653 101.244 79.5755 99.5957H65.7066C65.7992 101.382 65.8835 103.078 65.9705 104.768H79.8562ZM47.8126 13.5687H35.2349C35.5381 15.4902 35.83 17.3412 36.1191 19.1697H46.9425L47.8126 13.5687ZM36.6272 22.5366C36.8882 24.1876 37.1296 25.7174 37.3654 27.2191H45.7047C45.9405 25.6498 46.1678 24.12 46.4064 22.5366H36.6272ZM63.4106 43.3854C66.1361 42.7205 67.5648 40.0609 66.5459 37.621C66.4336 37.3392 66.1333 37.0012 65.8891 36.9758C65.0751 36.8941 64.247 36.9448 63.4106 36.9448V43.3854ZM19.623 36.9476C18.8511 36.9476 18.1297 36.9279 17.4083 36.9617C17.3121 36.9698 17.2188 36.9993 17.1353 37.048C17.0518 37.0967 16.9802 37.1635 16.9255 37.2435C16.6218 37.815 16.4566 38.4504 16.4435 39.0981C16.4303 39.7457 16.5695 40.3874 16.8497 40.9709C17.0887 41.5564 17.4661 42.0747 17.9493 42.4812C18.4324 42.8876 19.0068 43.1699 19.623 43.3037V36.9476Z" fill="white"/>
</g>
<defs>
<clipPath id="clip0_31_2010">
<rect width="100%" height="100%" fill="white"/>
</clipPath>
</defs>
</svg>
