<svg width="100%" height="100%" viewBox="0 0 128 113" fill="none" xmlns="http://www.w3.org/2000/svg">
<g clip-path="url(#clip0_56_3156)">
<path d="M127.997 39.9213C127.789 40.2557 127.589 40.6201 127.369 40.9578C126.076 42.9639 123.438 43.2815 121.631 41.5897C120.385 40.4228 119.253 39.1389 118.07 37.9119L117.736 38.0189V108.232C117.736 111.676 116.42 113 112.997 113C80.3367 113 47.6754 113 15.013 113C11.5127 113 10.2335 111.703 10.2335 108.152V37.7413L7.10396 40.8642C4.96973 42.9906 2.77873 43.2514 1.09206 41.5797C-0.594615 39.9079 -0.344119 37.6879 1.76005 35.5614C10.5085 26.8014 19.2536 18.0382 27.9953 9.27152C28.9718 8.24939 30.2296 7.54068 31.6091 7.23532C41.9128 4.89488 52.1999 2.47421 62.5036 0.147135C63.5547 -0.0708333 64.6403 -0.0594375 65.6866 0.180562C76.0315 2.52769 86.363 4.9261 96.6812 7.37576C97.7609 7.64295 98.7514 8.18947 99.5536 8.96058C108.52 17.852 117.451 26.7814 126.347 35.7486C126.978 36.3806 127.435 37.1863 127.973 37.9085L127.997 39.9213ZM110.208 105.454C110.208 105.119 110.245 104.905 110.245 104.701C110.245 80.1825 110.235 55.6558 110.215 31.1212C110.173 30.5231 109.921 29.9591 109.503 29.5297C104.79 24.753 100.048 20.003 95.2785 15.2798C94.8035 14.831 94.2199 14.5141 93.5851 14.3603C84.3936 12.1959 75.1932 10.0617 65.9838 7.95753C64.9819 7.73351 63.893 7.55966 62.9345 7.77364C53.4357 9.91347 43.9513 12.109 34.4815 14.3603C33.8075 14.5179 33.1867 14.85 32.6812 15.3232C27.9385 20.0041 23.2459 24.7552 18.5065 29.4461C18.2411 29.6989 18.0341 30.0068 17.9002 30.3482C17.7664 30.6895 17.7088 31.0561 17.7316 31.4222C17.7472 55.6558 17.7472 79.8905 17.7316 104.126V105.44H37.7312V64.9841C37.7312 61.8145 39.114 60.4437 42.317 60.4437H85.6929C88.8558 60.4437 90.2318 61.8345 90.2318 65.0343V105.444L110.208 105.454ZM77.196 68.0401H51.1445L64.1702 81.1031L77.196 68.0401ZM58.2919 86.8171L45.323 73.8343V99.7899L58.2919 86.8171ZM69.7079 86.4828L82.6335 99.3987V73.5568C78.218 77.9569 73.8661 82.3201 69.7079 86.4694V86.4828ZM76.8486 105.457L63.9698 92.5646L51.0943 105.457H76.8486Z" fill="white"/>
<path d="M63.99 35.4176C61.5786 35.4176 59.1672 35.4176 56.7557 35.4176C54.4412 35.4176 52.7478 33.8294 52.7478 31.6929C52.7478 29.5564 54.4178 27.9282 56.6989 27.9181C61.5664 27.8981 66.4316 27.8981 71.2945 27.9181C73.5924 27.9181 75.259 29.5598 75.239 31.6996C75.2189 33.8394 73.549 35.4009 71.231 35.4176C68.8129 35.4309 66.4015 35.4176 63.99 35.4176Z" fill="white"/>
<path d="M63.9933 50.4333C61.6253 50.4333 59.2539 50.4333 56.8826 50.4333C54.4578 50.4333 52.7678 48.892 52.7477 46.7153C52.7277 44.5387 54.4177 42.9405 56.8191 42.9339C61.6019 42.9205 66.3892 42.9205 71.1809 42.9339C73.5823 42.9339 75.2757 44.5287 75.2556 46.712C75.2356 48.8953 73.5522 50.4233 71.1208 50.4333C68.7327 50.4433 66.3647 50.4333 63.9933 50.4333Z" fill="white"/>
</g>
<defs>
<clipPath id="clip0_56_3156">
<rect width="100%" height="100%" fill="white"/>
</clipPath>
</defs>
</svg>
