<svg width="101" height="101" viewBox="0 0 101 101" fill="none" xmlns="http://www.w3.org/2000/svg">
<g clip-path="url(#clip0_130_294)">
<path d="M50.5 0C40.5121 0 30.7484 2.96177 22.4437 8.51079C14.139 14.0598 7.66633 21.9468 3.84411 31.1745C0.0218809 40.4022 -0.978188 50.556 0.970366 60.3521C2.91892 70.1481 7.72858 79.1463 14.7911 86.2089C21.8537 93.2714 30.8519 98.0811 40.648 100.03C50.444 101.978 60.5979 100.978 69.8255 97.1559C79.0532 93.3337 86.9402 86.861 92.4892 78.5563C98.0383 70.2516 101 60.488 101 50.5C100.986 37.111 95.6604 24.2746 86.1929 14.8071C76.7255 5.33965 63.889 0.0144812 50.5 0V0ZM86.8895 29.4583H73.3344C70.3001 22.4261 66.3048 15.8489 61.4627 9.91483C72.1792 12.8309 81.3148 19.8527 86.8895 29.4583ZM69.4375 50.5C69.403 54.7847 68.7278 59.0401 67.4344 63.125H33.5657C32.2723 59.0401 31.5971 54.7847 31.5625 50.5C31.5971 46.2153 32.2723 41.9599 33.5657 37.875H67.4344C68.7278 41.9599 69.403 46.2153 69.4375 50.5ZM36.9408 71.5417H64.0593C60.4874 78.5937 55.921 85.096 50.5 90.8495C45.077 85.0977 40.5105 78.595 36.9408 71.5417ZM36.9408 29.4583C40.5127 22.4063 45.079 15.904 50.5 10.1505C55.923 15.9023 60.4896 22.405 64.0593 29.4583H36.9408ZM39.5584 9.91483C34.7089 15.8477 30.7065 22.4249 27.6656 29.4583H14.1106C19.6902 19.8483 28.8341 12.826 39.5584 9.91483ZM10.3567 37.875H24.8292C23.7382 41.9956 23.1726 46.2375 23.1459 50.5C23.1726 54.7625 23.7382 59.0044 24.8292 63.125H10.3567C7.77004 54.9071 7.77004 46.0929 10.3567 37.875ZM14.1106 71.5417H27.6656C30.7065 78.5751 34.7089 85.1523 39.5584 91.0852C28.8341 88.174 19.6902 81.1517 14.1106 71.5417ZM61.4627 91.0852C66.3048 85.1511 70.3001 78.5739 73.3344 71.5417H86.8895C81.3148 81.1473 72.1792 88.1691 61.4627 91.0852ZM90.6433 63.125H76.1709C77.2618 59.0044 77.8274 54.7625 77.8542 50.5C77.8274 46.2375 77.2618 41.9956 76.1709 37.875H90.6349C93.2216 46.0929 93.2216 54.9071 90.6349 63.125H90.6433Z" fill="white"/>
</g>
<defs>
<clipPath id="clip0_130_294">
<rect width="101" height="101" fill="white"/>
</clipPath>
</defs>
</svg>
