<svg width="135" height="110" viewBox="0 0 135 110" fill="none" xmlns="http://www.w3.org/2000/svg">
<g clip-path="url(#clip0_31_2024)">
<path d="M0 75.3411C0.619734 74.1371 1.40849 73.1343 2.81697 72.7706C2.9515 72.719 3.07456 72.6413 3.17909 72.5419C3.28362 72.4426 3.36759 72.3235 3.42616 72.1916C3.92617 71.0723 4.39097 69.9318 4.83465 68.7878C4.95798 68.5216 4.97313 68.2177 4.8769 67.9404C3.65504 65.8219 4.39097 64.1624 6.0213 62.6795C6.21496 62.5065 6.37342 62.3017 6.72554 61.938C6.04242 61.3024 5.35226 60.7093 4.72197 60.0596C2.96136 58.2377 2.92263 56.1262 4.90155 54.5762C7.27837 52.7189 9.86647 51.1336 12.3208 49.3682C12.7398 49.0681 13.2151 48.4749 13.2187 48.0159C13.2656 35.9945 13.275 23.972 13.2468 11.9483C13.2329 11.7879 13.2082 11.6286 13.1729 11.4716L12.1905 11.3657C11.179 11.2567 10.2331 10.8111 9.50357 10.1001C8.77409 9.38913 8.30308 8.45364 8.16571 7.4429C8.07592 6.70031 8.04061 5.95213 8.06007 5.20435C8.09529 1.79709 9.88407 0.00695801 13.282 0.00695801C31.1581 0.00695801 49.0341 0.00695801 66.9102 0.00695801C70.287 0.00695801 72.1639 1.82182 72.0934 5.21849C72.0712 6.60728 71.7943 7.98009 71.2765 9.26836C70.7237 10.5889 69.4772 11.1115 67.3398 11.521C68.2647 14.5411 69.1861 17.5517 70.1039 20.5529C71.9033 26.4706 73.7202 32.3848 75.4809 38.3166C75.7626 39.2594 76.1851 39.6089 77.1957 39.7078C82.4317 40.2162 87.6572 40.8341 92.8862 41.4061C94.1011 41.5403 95.3159 41.6533 96.6927 41.7945V27.9889C96.6927 24.105 97.6328 22.8833 101.531 21.9547V20.613C101.531 17.1316 101.552 13.6537 101.531 10.1758C101.492 9.67078 101.588 9.16455 101.809 8.70908C102.03 8.25362 102.368 7.86535 102.788 7.58414C103.725 6.93093 104.605 6.19651 105.541 5.5433C106.644 4.77711 107.753 4.91835 108.45 5.86109C109.147 6.80382 109.094 8.07138 107.999 8.62219C105.566 9.85092 105.464 11.8459 105.587 14.1374C105.711 16.4289 105.637 18.6286 105.587 20.8743C105.587 21.6652 105.682 22.0995 106.644 22.2866C108.661 22.7068 109.996 24.5145 110.116 26.7248C110.175 27.8653 110.165 29.0128 110.116 30.1568C110.063 31.5197 109.172 32.4519 108.035 32.4166C106.897 32.3813 106.119 31.5021 106.052 30.1886C106.003 29.1788 106.02 28.1619 106.052 27.1521C106.052 26.4459 105.784 26.0929 105.041 26.1317C103.901 26.167 102.753 26.0823 101.619 26.1811C101.295 26.2094 100.746 26.6966 100.742 26.9791C100.689 32.0352 100.703 37.0914 100.703 42.2253L106.052 42.8502C106.052 41.9605 106.031 41.1413 106.052 40.3221C106.098 38.8392 106.915 37.8859 108.101 37.8929C109.288 37.9 110.087 38.8604 110.133 40.3433C110.161 41.2225 110.158 42.1088 110.175 42.9844C110.175 43.0621 110.242 43.1362 110.306 43.281C114.271 43.7329 118.271 44.1637 122.278 44.6616C125.447 45.0535 127.56 47.4862 127.577 50.6958C127.598 57.1254 127.577 63.5551 127.616 69.9848C127.64 70.613 127.883 71.2129 128.303 71.6796C137.94 81.4177 137.137 96.6074 126.5 105.223C126.278 105.403 126.067 105.6 125.602 106.01C128.253 106.01 130.609 105.915 132.947 106.07C133.623 106.116 134.588 106.776 134.799 107.355C135.011 107.934 134.518 108.856 134.18 109.551C134.06 109.802 133.503 109.905 133.123 109.957C132.73 109.999 132.334 110.008 131.94 109.982C88.9812 109.982 46.0223 109.989 3.06346 110.003C1.86977 110.003 0.838067 109.823 0.0176233 108.912V107.062C0.852152 106.183 1.86626 105.95 3.07051 106.003C5.91918 106.081 8.77488 106.028 11.6271 106.028H18.4054L18.4653 105.583C17.6483 105.459 16.7258 105.035 16.0286 105.276C14.0884 105.946 12.9299 105.869 11.4757 104.439C9.47561 102.462 7.49082 100.469 5.52129 98.4611C4.14801 97.0487 3.97195 95.8024 4.72901 94.0193C4.88515 93.6419 4.90994 93.2227 4.79942 92.8294C4.40857 91.7136 3.9332 90.6261 3.45784 89.5422C3.34868 89.2879 3.1339 88.9278 2.92263 88.8925C1.4578 88.6524 0.750037 87.5543 0.0176233 86.4633L0 75.3411ZM123.472 61.8356H121.778C108.336 61.8356 94.8945 61.8356 81.4528 61.8356C76.6604 61.8356 73.0371 58.7285 72.435 53.9618C72.192 52.0516 72.3153 50.0956 72.2941 48.1606C72.2941 46.593 72.2941 45.0252 72.2941 43.3657H70.685C63.2622 43.3657 55.8383 43.3657 48.4132 43.3657C46.8815 43.3657 46.0646 42.6137 46.1104 41.3037C46.1561 40.0785 46.959 39.4112 48.459 39.4112C55.6634 39.4112 62.8678 39.4112 70.0722 39.4112H71.5265C71.501 39.1428 71.4586 38.8763 71.3997 38.6132C68.7201 29.8426 66.0123 21.0826 63.3819 12.2978C63.0861 11.3092 62.5192 11.3869 61.815 11.3869H34.3495V39.4077H38.1982C39.8356 39.4077 40.7792 40.1315 40.7933 41.3743C40.8074 42.6172 39.8672 43.3657 38.2369 43.3657H17.3561C17.3561 44.4426 17.3561 45.3607 17.3561 46.2787C17.3747 46.5546 17.4087 46.8293 17.4582 47.1014C30.293 43.5035 42.1067 45.336 52.2584 54.1631C62.4101 62.9902 66.0651 74.3524 64.3362 87.5825H90.4214C90.8545 79.2744 94.3546 72.753 101.464 68.5159C108.573 64.2789 116.003 64.4167 123.482 68.0676L123.472 61.8356ZM14.3736 101.413C15.8384 100.294 17.3807 100.675 18.9512 101.533C19.6733 101.947 20.44 102.277 21.2365 102.518C23.1168 103.041 24.6802 103.863 25.0324 105.971H33.1312C33.4621 104.096 34.7227 103.175 36.4446 102.666C37.4108 102.38 38.3444 101.993 39.2299 101.512C40.8039 100.657 42.3356 100.354 43.9871 101.512C45.7477 99.7181 47.4872 97.9809 49.1703 96.1872C49.2727 96.0249 49.337 95.8415 49.3584 95.6506C49.3797 95.4598 49.3576 95.2666 49.2936 95.0856C49.0642 94.5378 48.9546 93.9471 48.9722 93.3532C48.9898 92.7593 49.1342 92.1761 49.3957 91.643C49.9907 90.326 50.5753 88.9984 51.0612 87.639C51.2357 87.0721 51.5316 86.5503 51.9281 86.11C52.3247 85.6696 52.8123 85.3215 53.357 85.0898C53.5469 84.9901 53.7115 84.8482 53.8384 84.675C53.9654 84.5019 54.0512 84.302 54.0895 84.0905C54.1528 81.6754 54.1211 79.2568 54.1211 76.757C52.1669 76.3439 51.3042 74.9916 50.7971 73.2261C50.4386 72.1428 49.9874 71.0926 49.4485 70.0872C49.1642 69.5416 49.003 68.9399 48.9762 68.3249C48.9495 67.7099 49.0578 67.0965 49.2936 66.5281C49.3497 66.3254 49.3589 66.1124 49.3205 65.9056C49.282 65.6988 49.1969 65.5035 49.0717 65.3346C47.5951 63.767 46.0693 62.2369 44.4941 60.7445C44.3258 60.619 44.131 60.5337 43.9247 60.4951C43.7185 60.4566 43.5061 60.4658 43.304 60.5221C42.7365 60.7586 42.1242 60.8673 41.5103 60.8404C40.8964 60.8136 40.2958 60.6519 39.751 60.3668C38.7503 59.826 37.7039 59.3747 36.6242 59.018C34.8636 58.5131 33.529 57.6056 33.103 55.6884C30.617 55.6884 28.205 55.6566 25.7964 55.7237C25.5856 55.762 25.3862 55.8481 25.2135 55.9754C25.0408 56.1026 24.8994 56.2678 24.8 56.4581C24.5689 57.0039 24.2216 57.4924 23.7824 57.8895C23.3433 58.2865 22.8229 58.5825 22.2576 58.7567C20.9407 59.2298 19.6449 59.7736 18.3843 60.3668C17.8393 60.6513 17.2386 60.8124 16.6247 60.8386C16.0108 60.8649 15.3986 60.7556 14.8314 60.5186C14.65 60.4562 14.457 60.4358 14.2667 60.4591C14.0764 60.4823 13.8938 60.5486 13.7328 60.6528C11.9475 62.3441 10.2115 64.0883 8.45092 65.8502C9.5918 67.5061 9.31362 69.0456 8.45092 70.6204C7.95945 71.5126 7.56403 72.4548 7.27132 73.4309C6.76427 75.161 5.83819 76.418 4.01067 76.7393V84.892C5.92622 85.2733 6.803 86.5904 7.31358 88.3064C7.58352 89.2336 7.95059 90.1295 8.40867 90.9792C9.26785 92.5539 9.58476 94.0969 8.546 95.5693L14.3736 101.413ZM94.5377 87.7308C94.5479 92.5823 96.4779 97.2314 99.9036 100.657C103.329 104.083 107.971 106.006 112.809 106.003C117.625 105.951 122.229 104.007 125.631 100.589C129.033 97.1701 130.962 92.5496 131.003 87.7202C130.995 82.8688 129.065 78.2194 125.639 74.7942C122.213 71.369 117.57 69.4486 112.732 69.4552C110.336 69.442 107.961 69.906 105.745 70.82C103.53 71.7341 101.517 73.0802 99.8237 74.7802C98.1306 76.4802 96.7909 78.5003 95.8823 80.7234C94.9737 82.9465 94.5143 85.3283 94.5306 87.7308H94.5377ZM90.8615 91.8231C90.7222 91.7744 90.5782 91.7401 90.4319 91.7207C78.488 91.7207 66.544 91.7207 54.6 91.7207C53.5436 91.7207 52.9275 92.8965 53.4099 93.9522C54.1141 95.4987 54.0366 96.9887 52.8465 98.2316C50.7478 100.421 48.6046 102.569 46.4167 104.675C45.3603 105.692 43.9871 106.137 42.6666 105.403C41.4483 104.725 40.6771 105.304 39.4553 105.943H99.8794C95.006 102.243 92.02 97.5889 90.8545 91.8231H90.8615ZM76.5759 43.6588C76.502 43.793 76.4245 43.8671 76.4245 43.9413C76.4245 46.6706 76.5161 49.407 76.3506 52.1258C76.1358 55.7308 78.5549 57.8316 81.9845 57.8104C95.3264 57.7151 108.668 57.7716 122.014 57.7681C122.479 57.7681 122.947 57.7257 123.493 57.701C123.493 55.2011 123.528 52.8319 123.493 50.4627C123.468 49.4035 122.81 48.7644 121.753 48.6444C116.091 48.0159 110.429 47.405 104.767 46.7765C99.5836 46.2045 94.4003 45.6278 89.2171 45.0464L76.5759 43.6588ZM30.2332 11.4539H17.4336V39.3017H30.2332V11.4539ZM9.56364 59.2616C10.1939 58.5766 10.701 57.9799 11.2538 57.4326C12.8701 55.8261 14.0426 55.6249 16.1131 56.504C16.3733 56.6246 16.6674 56.6496 16.9441 56.5746C18.1695 56.1039 19.3796 55.5978 20.5745 55.0564C20.8229 54.9167 21.0082 54.6867 21.0921 54.4138C21.6555 52.5636 22.9513 51.6632 24.8035 51.6279C27.6556 51.5714 30.5114 51.5891 33.3671 51.6279C34.8178 51.6491 36.1559 52.1858 36.67 53.5946C37.1066 54.788 37.8566 55.2894 38.9552 55.6001C39.582 55.7802 40.1419 56.1933 40.7722 56.3522C41.2699 56.4988 41.7992 56.4988 42.2969 56.3522C43.8356 55.7837 45.2477 55.8579 46.4484 57.0337C48.5858 59.1239 50.6739 61.2707 52.7866 63.3892C53.7831 64.3884 54.2444 65.7337 53.6634 66.8918C52.9873 68.2441 53.438 69.1974 53.9732 70.292C54.2008 70.7191 54.377 71.1719 54.4979 71.6408C54.5591 71.9788 54.7189 72.2911 54.9571 72.5381C55.1952 72.7851 55.5011 72.9557 55.836 73.0284C57.2128 73.4803 58.1142 74.5784 58.1177 75.9731C58.1177 79.857 58.6952 83.7586 57.6776 87.5967C59.9065 87.9038 60.2938 87.812 60.322 86.5092C60.403 83.0913 60.7868 79.5993 60.2657 76.2697C56.7022 53.5205 30.6311 42.0205 11.4123 54.6221C10.1482 55.4518 8.97912 56.4263 7.80656 57.302L9.56364 59.2616ZM39.9271 7.40406H45.0646C52.2232 7.40406 59.3818 7.40404 66.544 7.38286C67.0194 7.38286 67.7271 7.26281 67.9243 6.94504C68.787 5.55741 67.8398 3.97916 66.2341 3.97916H13.9229C13.5708 3.95768 13.2175 3.96475 12.8665 4.00032C12.6341 4.04269 12.2398 4.20864 12.2292 4.35341C12.1588 5.21847 12.0391 6.11882 12.2292 6.94504C12.2961 7.21691 13.2856 7.39346 13.8243 7.39346C22.5311 7.41465 31.232 7.41819 39.9271 7.40406Z" fill="white"/>
<path d="M76.2309 77.315C76.2309 75.8179 76.1992 74.3208 76.2309 72.8273C76.2626 71.3337 77.0267 70.564 78.2485 70.5569C79.4704 70.5499 80.2732 71.3443 80.2943 72.7955C80.3366 75.8744 80.3366 78.9545 80.2943 82.0357C80.2943 83.4869 79.488 84.306 78.2802 84.3131C77.0724 84.3202 76.259 83.4692 76.2273 81.9368C76.1956 80.4045 76.2309 78.865 76.2309 77.315Z" fill="white"/>
<path d="M87.2277 77.3149C87.2277 78.8544 87.2277 80.3938 87.2277 81.9332C87.2277 83.4727 86.4636 84.3166 85.2065 84.313C83.9494 84.3095 83.2522 83.5151 83.2381 82.0321C83.2123 78.9556 83.2123 75.8778 83.2381 72.7989C83.2381 71.323 83.9846 70.5427 85.2346 70.5533C86.4847 70.5639 87.2065 71.3937 87.2277 72.8308C87.2453 74.3349 87.2277 75.8284 87.2277 77.3149Z" fill="white"/>
<path d="M73.3082 77.3573C73.3082 78.985 73.3364 80.6127 73.3082 82.2369C73.2766 83.5645 72.4772 84.3554 71.2906 84.3237C71.0261 84.3261 70.7639 84.2739 70.5204 84.1703C70.2769 84.0667 70.0572 83.9139 69.8752 83.7214C69.6932 83.5289 69.5526 83.3009 69.4624 83.0516C69.3721 82.8023 69.3339 82.537 69.3504 82.2723C69.3199 79.0662 69.3199 75.8567 69.3504 72.6436C69.3504 71.3372 70.192 70.5251 71.3857 70.564C72.5794 70.6028 73.2731 71.3337 73.3047 72.6083C73.3364 74.1901 73.3047 75.7755 73.3082 77.3573Z" fill="white"/>
<path d="M45.3709 80.9235C45.3644 83.0726 44.9359 85.1994 44.1097 87.1825C43.2835 89.1656 42.0759 90.9661 40.5558 92.4812C39.0357 93.9962 37.2329 95.1963 35.2502 96.0127C33.2676 96.8291 31.1441 97.246 29.0008 97.2395C24.6725 97.2005 20.5339 95.4526 17.4821 92.3746C14.4303 89.2966 12.7112 85.1366 12.6975 80.7964C12.7044 78.6363 13.1375 76.4989 13.972 74.5075C14.8065 72.516 16.0258 70.7099 17.5596 69.1932C19.0935 67.6765 20.9115 66.4792 22.909 65.6703C24.9065 64.8614 27.0439 64.457 29.198 64.4803C31.3408 64.4806 33.4622 64.9077 35.439 65.737C37.4158 66.5662 39.2086 67.7811 40.7133 69.3109C42.218 70.8407 43.4046 72.6551 44.2041 74.6486C45.0037 76.6421 45.4003 78.775 45.3709 80.9235ZM29.0606 93.1578C30.6754 93.1639 32.2756 92.8505 33.7694 92.2355C35.2632 91.6206 36.6214 90.7163 37.7662 89.5742C38.911 88.4322 39.8199 87.075 40.4408 85.5803C41.0618 84.0856 41.3826 82.4827 41.3849 80.8635C41.3952 77.5932 40.1124 74.4522 37.8175 72.1285C35.5227 69.8049 32.4029 68.4881 29.1416 68.4666C27.5162 68.4544 25.9045 68.7662 24.4002 69.3838C22.8959 70.0013 21.529 70.9124 20.3788 72.0641C19.2286 73.2159 18.318 74.5852 17.7 76.0928C17.082 77.6003 16.7688 79.2159 16.7786 80.8458C16.7693 82.4655 17.0806 84.0711 17.6945 85.5693C18.3085 87.0675 19.2129 88.4287 20.3553 89.5739C21.4977 90.7191 22.8554 91.6255 24.3497 92.2407C25.844 92.856 27.4453 93.1677 29.0606 93.1578Z" fill="white"/>
<path d="M99.8301 87.6921C99.8243 84.7872 100.794 81.9648 102.582 79.6795C104.371 77.3942 106.874 75.779 109.69 75.094C112.534 74.4135 115.525 74.7157 118.177 75.9519C120.829 77.188 122.988 79.2856 124.303 81.905C124.743 82.7983 125.007 83.7764 124.179 84.4508C123.887 84.6842 123.551 84.8551 123.191 84.9529C122.83 85.0506 122.454 85.0732 122.084 85.0192C121.496 84.8674 120.964 84.1012 120.619 83.4869C117.954 78.7626 112.077 77.3079 107.693 80.3338C104.784 82.3429 103.263 85.9832 103.978 89.3163C104.802 93.1367 107.147 95.5482 110.908 96.4345C112.66 96.8238 114.489 96.6649 116.148 95.9792C117.807 95.2936 119.217 94.1141 120.186 92.6C120.257 92.4905 120.327 92.3775 120.394 92.2469C121.376 90.6404 122.422 90.2061 123.563 90.9299C124.704 91.6537 124.736 92.8366 123.781 94.4149C122.312 96.8413 120.089 98.7167 117.453 99.7527C114.817 100.789 111.915 100.928 109.193 100.149C106.494 99.3752 104.12 97.7408 102.431 95.493C100.741 93.2453 99.8284 90.5067 99.8301 87.6921Z" fill="white"/>
<path d="M119.654 87.6851C119.653 88.5979 119.472 89.5014 119.122 90.344C118.772 91.1866 118.26 91.9517 117.614 92.5955C116.969 93.2393 116.203 93.7492 115.361 94.0959C114.519 94.4426 113.617 94.6194 112.707 94.6162C110.866 94.6031 109.104 93.861 107.806 92.5516C106.508 91.2421 105.779 89.4713 105.777 87.6251C105.817 85.8016 106.559 84.0643 107.847 82.777C109.136 81.4896 110.871 80.7521 112.689 80.7188C114.532 80.7234 116.298 81.4583 117.603 82.7632C118.908 84.0681 119.645 85.8373 119.654 87.6851ZM109.869 87.6851C109.867 88.0684 109.94 88.4483 110.084 88.8031C110.229 89.1579 110.442 89.4805 110.711 89.7525C110.981 90.0245 111.301 90.2405 111.654 90.388C112.006 90.5355 112.385 90.6117 112.767 90.6122C113.539 90.5778 114.268 90.2477 114.804 89.6898C115.34 89.132 115.642 88.3891 115.647 87.6145C115.631 86.859 115.319 86.14 114.78 85.6119C114.241 85.0839 113.517 84.7887 112.763 84.7898C112.378 84.7733 111.994 84.8372 111.635 84.9777C111.276 85.1181 110.95 85.332 110.677 85.6056C110.405 85.8792 110.193 86.2067 110.054 86.5671C109.914 86.9276 109.852 87.3131 109.869 87.6992V87.6851Z" fill="white"/>
<path d="M19.1413 81.0117C18.9969 75.6483 23.3668 70.9912 28.6486 70.8641C34.1875 70.7299 38.8355 74.9775 38.9939 80.3091C39.1594 86.0714 34.9833 90.5803 29.2859 90.7851C23.8632 90.9793 19.2892 86.5728 19.1413 81.0117ZM29.0711 86.7352C30.6417 86.7399 32.15 86.12 33.2655 85.0114C34.381 83.9028 35.0127 82.3959 35.022 80.8211C35.0011 79.2434 34.3672 77.7361 33.2553 76.6198C32.1433 75.5035 30.6409 74.8662 29.0676 74.8433C27.4918 74.8555 25.9853 75.4945 24.8793 76.6201C23.7733 77.7457 23.1583 79.2657 23.1696 80.8458C23.1615 81.6238 23.3088 82.3956 23.6029 83.1157C23.897 83.8357 24.3318 84.4895 24.8818 85.0383C25.4319 85.5872 26.0859 86.0201 26.8054 86.3116C27.5248 86.603 28.2952 86.7471 29.0711 86.7352Z" fill="white"/>
</g>
<defs>
<clipPath id="clip0_31_2024">
<rect width="135" height="110" fill="white"/>
</clipPath>
</defs>
</svg>
