<svg width="104" height="105" viewBox="0 0 104 105" fill="none" xmlns="http://www.w3.org/2000/svg">
<g clip-path="url(#clip0_31_2012)">
<path d="M55.3057 91.184C54.4377 94.1638 52.667 96.2388 49.8547 97.4208C50.7227 100.03 50.3263 102.306 48.0782 103.955C46.2757 105.271 44.2764 105.341 42.387 104.165C40.11 102.753 39.4937 100.584 40.0724 97.9753H25.8113C26.3899 100.622 25.7534 102.82 23.4156 104.215C21.5089 105.353 19.5154 105.251 17.7303 103.9C15.54 102.239 15.161 99.9977 16.0261 97.4295C13.8735 96.4956 12.1375 95.0948 11.2521 92.9001C10.7659 91.7711 10.4922 90.5608 10.4449 89.3308C10.3928 74.1043 10.3832 58.8797 10.416 43.657C10.4156 42.5168 10.6384 41.3878 11.0716 40.3346C11.5048 39.2815 12.1398 38.3249 12.9403 37.5199C13.7409 36.7149 14.6911 36.0772 15.7365 35.6434C16.7819 35.2097 17.9019 34.9883 19.0323 34.9922C21.3035 34.9922 23.5747 34.9922 26.0138 34.9922V33.6906C26.0138 24.8418 26.0138 15.9892 26.0138 7.13267C26.0138 3.45834 28.6178 0.420221 32.0637 0.0408225C33.8209 -0.186525 35.5979 0.272223 37.0307 1.32313C38.4636 2.37404 39.4441 3.93762 39.7715 5.69386C39.8581 6.23202 39.891 6.77756 39.8699 7.32234C39.8699 16.101 39.8699 24.8788 39.8699 33.6555V34.9922C42.2308 34.9922 44.5252 34.9922 46.8138 34.9922C47.9721 34.9725 49.1216 35.1976 50.1885 35.653C51.2554 36.1084 52.2159 36.784 53.0084 37.6363C53.7929 38.4199 54.4139 39.354 54.8348 40.3835C55.2557 41.4131 55.4679 42.5172 55.459 43.6308C55.459 48.9132 55.459 54.1946 55.459 59.4751V60.8817C55.7802 60.2981 55.9567 60.0062 56.1013 59.7144C58.9291 53.7899 61.7529 47.8635 64.5729 41.9352C66.1527 38.6315 68.9939 37.6392 72.2923 39.2385C82.3224 44.1026 92.3526 48.9667 102.383 53.8308C104.096 54.6626 104.37 55.4126 103.56 57.1111C96.4775 71.9816 89.3927 86.8482 82.306 101.711C81.5538 103.284 80.7755 103.547 79.1784 102.773C71.2594 98.9208 63.3404 95.0802 55.3057 91.184ZM26.0398 38.4943H19.7324C16.0174 38.4943 13.8851 40.6394 13.8822 44.375C13.8822 50.4571 13.8822 56.5381 13.8822 62.6182C13.8822 71.3561 13.8822 80.0949 13.8822 88.8347C13.8822 92.0216 15.9885 94.3972 19.0294 94.4177C28.3024 94.476 37.5784 94.4614 46.8543 94.4177C47.947 94.4057 49.008 94.046 49.8861 93.3899C50.7641 92.7337 51.4144 91.8147 51.744 90.7638C51.9841 89.9875 52.0044 89.3979 51.0409 89.0886C50.3025 88.8015 49.5851 88.4621 48.8941 88.073C45.6652 86.4824 44.6959 83.6457 46.2612 80.3595C48.0521 76.5947 49.8518 72.8328 51.6312 69.0622C51.8359 68.683 51.9582 68.2641 51.9899 67.8335C52.0102 59.8253 52.0304 51.8141 51.9899 43.803C51.9755 40.7444 49.7158 38.5498 46.672 38.4943C44.6178 38.4593 42.5578 38.4943 40.5006 38.4943C40.275 38.516 40.0515 38.556 39.8323 38.614V47.1534H36.3603V38.5498H29.4511V47.1767H26.0398V38.4943ZM65.7534 47.7371C65.7158 47.8071 65.6406 47.9268 65.5798 48.0552C60.179 59.3788 54.7781 70.7024 49.3773 82.0259C48.6916 83.4677 49.0069 84.2002 50.552 84.9444L75.2666 96.9334L79.6471 99.0551L96.897 62.8663L65.7534 47.7371ZM36.4095 34.9542V33.7518C36.4095 25.0918 36.4095 16.4338 36.4095 7.77764C36.4245 7.45068 36.4177 7.12308 36.3892 6.79704C36.2069 5.44288 35.5559 4.40683 34.2887 3.84357C33.7292 3.57948 33.1066 3.48205 32.4941 3.5627C31.8816 3.64335 31.3047 3.89872 30.8312 4.29883C29.8388 5.05763 29.4742 6.13746 29.4742 7.36613C29.4742 16.316 29.4742 25.266 29.4742 34.2159C29.4742 34.4552 29.5205 34.6974 29.5465 34.9572L36.4095 34.9542ZM99.9118 56.5712L79.5661 46.666C76.5512 45.2068 73.5364 43.7475 70.5129 42.2883C69.3556 41.7396 68.4239 42.0548 67.9841 43.0675C67.5704 44.0277 67.9841 44.8741 69.2051 45.4636L91.0843 56.0868C93.5089 57.2541 95.9393 58.4215 98.4478 59.6414L99.9118 56.5712ZM20.7538 97.9431C20.3017 97.9824 19.8804 98.1907 19.5726 98.527C19.2649 98.8634 19.0928 99.3036 19.0901 99.7614C19.1359 100.201 19.3361 100.609 19.6545 100.913C19.9729 101.216 20.3885 101.395 20.8261 101.416C21.277 101.392 21.7029 101.2 22.0203 100.876C22.3377 100.552 22.5237 100.12 22.5418 99.665C22.5148 99.2032 22.3153 98.7688 21.9836 98.4493C21.6518 98.1299 21.2124 97.949 20.7538 97.9431ZM45.0807 97.9431C44.6278 97.9664 44.1995 98.1584 43.8788 98.4818C43.5581 98.8053 43.3678 99.2373 43.3447 99.6942C43.372 100.133 43.5541 100.548 43.8582 100.863C44.1623 101.179 44.5683 101.374 45.0026 101.413C45.4571 101.406 45.8923 101.227 46.2226 100.912C46.553 100.597 46.7546 100.169 46.7878 99.7117C46.7735 99.2546 46.5906 98.8194 46.2748 98.4912C45.9591 98.163 45.5332 97.9655 45.0807 97.9373V97.9431Z" fill="white"/>
<path d="M83.99 10.0745C86.5447 11.7877 88.9925 13.4512 91.4721 15.0651C91.6212 15.1249 91.7819 15.1494 91.9419 15.1367C92.1019 15.1241 92.2569 15.0746 92.395 14.9921C93.5523 14.2654 94.6807 13.4687 95.8294 12.7157C96.9202 11.9978 97.5972 12.062 98.523 12.9784C99.5569 13.994 100.577 15.0242 101.584 16.069C102.542 17.0642 102.559 17.9397 101.599 18.9233C99.4171 21.153 97.2326 23.3797 95.0106 25.5627C93.1039 27.4393 90.7227 27.6057 88.2778 26.1085C81.3513 21.8515 74.4305 17.5866 67.5155 13.314C65.0561 11.7964 62.5968 10.2779 60.1375 8.75831C58.6561 7.839 58.552 6.75041 59.7035 5.46921C61.7288 3.21325 64.0985 1.71901 67.2261 1.79489C69.2919 1.84451 71.1032 2.67043 72.706 3.87283C74.0312 4.86802 75.1335 4.88844 76.5773 4.04501C78.9093 2.68209 81.3947 1.5877 83.8106 0.347354C84.8146 -0.169212 85.6276 -0.0466658 86.4435 0.755908C89.0098 3.29204 89.0272 3.31832 86.8833 6.20175L83.99 10.0745ZM63.569 6.7154C65.8026 8.09582 67.9523 9.42374 70.105 10.7487C76.748 14.8345 83.3891 18.9311 90.0283 23.0383C90.795 23.5111 91.6341 23.8555 92.3198 23.1901C94.2352 21.331 96.0522 19.3698 97.9039 17.4524C96.9028 16.25 96.9028 16.247 95.6355 17.0992C94.8254 17.6421 93.9979 18.1645 93.2109 18.7423C92.3053 19.4077 91.4749 19.3931 90.5317 18.7423C87.3086 16.5418 84.0536 14.3822 80.8218 12.1933C79.514 11.3178 79.3751 10.3985 80.3357 9.08518C81.4178 7.6026 82.5115 6.1288 83.7903 4.39524C83.1885 4.66082 82.8674 4.78924 82.5607 4.94391C80.2721 6.09086 77.9748 7.22614 75.7006 8.40519C75.329 8.62866 74.9012 8.73876 74.4688 8.72219C74.0365 8.70561 73.6182 8.56306 73.2645 8.31178C72.0435 7.53353 70.8061 6.7874 69.5523 6.07335C68.6217 5.50877 67.5338 5.26598 66.4539 5.38186C65.374 5.49774 64.3611 5.96596 63.569 6.7154Z" fill="white"/>
<path d="M103.87 48.8724C103.427 48.9103 103.115 48.9453 102.799 48.9628C102.021 49.0066 101.24 49.0416 100.516 49.0796C100.033 46.0911 99.5674 43.1989 99.145 40.5635C95.9363 39.8923 92.8954 39.4633 89.979 38.6053C84.4817 36.9884 79.7482 33.9883 75.6831 29.917C74.6329 28.8635 73.6057 27.7895 72.5381 26.7564C71.5775 25.8254 70.698 25.8224 69.6593 26.6746C66.9656 28.881 64.2199 28.7642 61.7374 26.339C58.0745 22.7581 53.1067 22.7026 49.3251 26.2165C47.6701 27.7516 45.7808 28.6709 43.4141 28.6563V25.2066C45.0864 25.1016 46.3334 24.1472 47.5775 23.047C52.0998 19.0516 59.0032 19.1363 63.5168 23.1667C63.8061 23.4322 64.0954 23.7212 64.3848 23.9897C65.3714 24.9002 66.2307 24.9206 67.2781 24.0714C70.0036 21.8358 72.7985 21.9584 75.2694 24.4858C78.3652 27.6523 81.49 30.7517 85.4481 32.8676C88.9531 34.7389 92.7602 35.9663 96.6915 36.4923C97.0943 36.5154 97.4981 36.5154 97.9009 36.4923C97.0618 34.4319 96.2661 32.4853 95.4502 30.4774L98.4969 28.9364C101.607 35.1464 103.435 41.9288 103.87 48.8724Z" fill="white"/>
<path d="M8.50921 74.2016L5.47991 75.7134C-5.41629 54.8873 -0.0665603 25.2067 21.5928 10.0249L23.5776 12.7887C14.1049 19.936 7.77141 29.17 4.94465 40.7358C2.12946 52.2549 3.4112 63.3683 8.50921 74.2016Z" fill="white"/>
<path d="M67.1798 99.3148C67.4459 100.149 67.7874 101.203 68.1548 102.35C63.5164 103.886 58.686 104.754 53.8069 104.927V101.667L67.1798 99.3148Z" fill="white"/>
<path d="M43.5645 3.96333C43.4112 3.01775 43.2347 1.92041 43.0466 0.788052C47.7831 -0.0487628 52.6118 -0.21871 57.3946 0.28313C57.2817 1.45051 57.1776 2.54201 57.085 3.49343L43.5645 3.96333Z" fill="white"/>
<path d="M20.8926 50.7722H24.2199V90.8834H20.8926V50.7722Z" fill="white"/>
<path d="M31.2825 50.7781H34.6242V90.8484H31.2825V50.7781Z" fill="white"/>
<path d="M44.9996 90.8864H41.6636V50.816H44.9967L44.9996 90.8864Z" fill="white"/>
<path d="M74.5807 57.2104C76.178 57.2064 77.7601 57.5224 79.2354 58.1398C80.7107 58.7573 82.0498 59.6641 83.1751 60.8075C84.3003 61.951 85.1893 63.3084 85.7906 64.801C86.3918 66.2936 86.6934 67.8918 86.6777 69.5029C86.6784 71.1145 86.3633 72.7104 85.7504 74.1987C85.1375 75.687 84.2389 77.0384 83.1063 78.1751C81.9737 79.3118 80.6295 80.2115 79.151 80.8223C77.6724 81.4331 76.0887 81.743 74.491 81.7341C67.8364 81.7166 62.3941 76.1482 62.4144 69.357C62.4434 66.1228 63.7384 63.0313 66.0173 60.7561C68.2963 58.4809 71.3743 57.2064 74.5807 57.2104ZM82.8643 71.5108C83.8885 69.2315 82.4447 64.5298 81.0531 63.9491C80.7377 65.9715 80.4165 68.0349 80.0838 70.1624L82.8643 71.5108ZM74.2509 78.1356C77.176 78.1823 79.4907 77.1054 81.4118 74.759L78.5561 73.3698L74.2509 78.1356ZM67.9927 75.1121C68.3659 73.1422 68.7362 71.2452 69.0661 69.3423C69.078 69.215 69.0602 69.0866 69.0139 68.9675C68.9677 68.8484 68.8944 68.7418 68.7999 68.6565C67.9666 68.1954 67.0957 67.8073 66.1786 67.3666C65.5623 70.3784 66.2046 72.897 67.9927 75.1121ZM74.9019 60.7563C71.9623 60.7563 69.6303 61.8332 67.7178 64.1592L70.5793 65.5338L74.9019 60.7563ZM77.5059 63.8995L77.0805 63.666L73.8632 67.1477L76.8375 68.569C77.0632 66.8821 77.2773 65.3908 77.4914 63.8995H77.5059ZM71.6382 75.0304L72.0317 75.2668L75.3156 71.7939L72.3326 70.3346C72.0722 71.9836 71.8466 73.5157 71.6238 75.0304H71.6382Z" fill="white"/>
<path d="M57.6665 84.5534C58.2047 83.4356 58.685 82.4288 59.1971 81.3635L74.8209 88.9515L73.328 92.1618L57.6665 84.5534Z" fill="white"/>
</g>
<defs>
<clipPath id="clip0_31_2012">
<rect width="104" height="105" fill="white"/>
</clipPath>
</defs>
</svg>
