<svg width="29" height="28" viewBox="0 0 29 28" fill="none" xmlns="http://www.w3.org/2000/svg">
<g clip-path="url(#clip0_105_4680)">
<path d="M15.7082 1.16658C15.7082 0.857158 15.8355 0.560411 16.0621 0.341619C16.2888 0.122826 16.5961 -8.99957e-05 16.9166 -8.99957e-05C20.1202 0.00330687 23.1916 1.23356 25.4569 3.42075C27.7222 5.60794 28.9964 8.57343 28.9999 11.6666C28.9999 11.976 28.8726 12.2727 28.646 12.4915C28.4194 12.7103 28.112 12.8332 27.7916 12.8332C27.4711 12.8332 27.1638 12.7103 26.9371 12.4915C26.7105 12.2727 26.5832 11.976 26.5832 11.6666C26.5804 9.19208 25.561 6.81972 23.7488 5.06998C21.9365 3.32025 19.4794 2.33602 16.9166 2.33324C16.5961 2.33324 16.2888 2.21033 16.0621 1.99153C15.8355 1.77274 15.7082 1.476 15.7082 1.16658ZM16.9166 6.99991C18.1984 6.99991 19.4278 7.49158 20.3342 8.36675C21.2407 9.24192 21.7499 10.4289 21.7499 11.6666C21.7499 11.976 21.8772 12.2727 22.1038 12.4915C22.3304 12.7103 22.6378 12.8332 22.9582 12.8332C23.2787 12.8332 23.5861 12.7103 23.8127 12.4915C24.0393 12.2727 24.1666 11.976 24.1666 11.6666C24.1646 9.81063 23.4002 8.03123 22.041 6.71888C20.6817 5.40652 18.8388 4.66843 16.9166 4.66658C16.5961 4.66658 16.2888 4.78949 16.0621 5.00829C15.8355 5.22708 15.7082 5.52383 15.7082 5.83324C15.7082 6.14266 15.8355 6.43941 16.0621 6.6582C16.2888 6.87699 16.5961 6.99991 16.9166 6.99991ZM27.9039 19.5287C28.6042 20.2067 28.9974 21.1251 28.9974 22.0826C28.9974 23.04 28.6042 23.9584 27.9039 24.6364L26.8044 25.8602C16.9081 35.0081 -7.17397 11.7622 2.15436 2.17691L3.54394 1.01024C4.24691 0.353034 5.18961 -0.0105327 6.16809 -0.00179935C7.14656 0.00693404 8.08214 0.387265 8.7724 1.05691C8.80986 1.09308 11.0489 3.90124 11.0489 3.90124C11.7133 4.57514 12.0831 5.47033 12.0815 6.40071C12.08 7.3311 11.7071 8.22511 11.0404 8.89691L9.64119 10.5956C10.4156 12.4122 11.5541 14.0632 12.9913 15.4537C14.4286 16.8442 16.1362 17.9468 18.0162 18.6981L19.7864 17.3389C20.4822 16.6957 21.408 16.3362 22.3713 16.3349C23.3347 16.3335 24.2615 16.6906 24.9592 17.3319C24.9592 17.3319 27.8665 19.4926 27.9039 19.5287ZM26.2413 21.2251C26.2413 21.2251 23.3497 19.0772 23.3123 19.0411C23.0633 18.8028 22.727 18.6691 22.3764 18.6691C22.0259 18.6691 21.6895 18.8028 21.4406 19.0411C21.4079 19.0737 18.9707 20.9486 18.9707 20.9486C18.8065 21.0748 18.611 21.1575 18.4036 21.1886C18.1962 21.2197 17.9839 21.1981 17.7878 21.1259C15.3523 20.2504 13.1402 18.8798 11.3012 17.1068C9.46228 15.3339 8.03943 13.2001 7.12907 10.8499C7.04835 10.6579 7.02203 10.4487 7.05283 10.2436C7.08362 10.0386 7.17041 9.84517 7.30428 9.68325C7.30428 9.68325 9.24607 7.32891 9.27869 7.29858C9.52552 7.05823 9.66401 6.73346 9.66401 6.39499C9.66401 6.05653 9.52552 5.73176 9.27869 5.49141C9.24123 5.45641 7.01669 2.66224 7.01669 2.66224C6.76403 2.4435 6.43428 2.32636 6.09503 2.33482C5.75579 2.34327 5.43274 2.4767 5.19211 2.70774L3.80253 3.87441C-3.01489 11.7891 17.8542 30.8209 25.0378 24.2666L26.1386 23.0416C26.3965 22.8109 26.5515 22.4924 26.5706 22.1534C26.5898 21.8144 26.4717 21.4815 26.2413 21.2251Z" fill="white"/>
</g>
<defs>
<clipPath id="clip0_105_4680">
<rect width="29" height="28" fill="white"/>
</clipPath>
</defs>
</svg>
