<svg width="29" height="28" viewBox="0 0 29 28" fill="none" xmlns="http://www.w3.org/2000/svg">
<g clip-path="url(#clip0_105_4679)">
<path d="M25.375 1.1665H3.625C2.66359 1.1665 1.74156 1.53525 1.06174 2.19163C0.381919 2.84801 0 3.73825 0 4.6665L0 26.8332H29V4.6665C29 3.73825 28.6181 2.84801 27.9383 2.19163C27.2584 1.53525 26.3364 1.1665 25.375 1.1665ZM25.1019 4.6665L16.4805 12.9907C15.947 13.4826 15.2377 13.7571 14.5 13.7571C13.7623 13.7571 13.053 13.4826 12.5195 12.9907L3.89808 4.6665H25.1019ZM3.625 23.3332V9.353L9.95546 15.4652C10.5521 16.0415 11.2605 16.4986 12.0401 16.8105C12.8198 17.1224 13.6555 17.283 14.4994 17.283C15.3433 17.283 16.179 17.1224 16.9587 16.8105C17.7383 16.4986 18.4467 16.0415 19.0433 15.4652L25.375 9.353V23.3332H3.625Z" fill="white"/>
</g>
<defs>
<clipPath id="clip0_105_4679">
<rect width="29" height="28" fill="white"/>
</clipPath>
</defs>
</svg>
